<svg width="500" height="150" viewBox="0 0 500 150" fill="none" xmlns="http://www.w3.org/2000/svg">
<path d="M402.36 45.6H401.76L387.6 86.4H416.52L402.36 45.6Z" fill="#008EF4"/>
<path fill-rule="evenodd" clip-rule="evenodd" d="M349.84 0H499.84V150H349.84V0ZM438 120H427.44L419.04 95.28H385.2L376.8 120H366.6L395.88 36.24H408.72L438 120ZM443.115 120V111.6H454.875V44.64H443.115V36.24H476.715V44.64H464.955V111.6H476.715V120H443.115Z" fill="#008EF4"/>
<path d="M64.68 49.44H65.28V120H75.12V36.24H62.16L38.04 81.36H37.44L13.44 36.24H0V120H9.84V49.44H10.44L17.52 63.48L37.56 99.96L57.6 63.48L64.68 49.44Z" fill="#008EF4"/>
<path fill-rule="evenodd" clip-rule="evenodd" d="M103.383 119.16C106.823 120.68 110.663 121.44 114.903 121.44C120.743 121.44 125.783 120.16 130.023 117.6C134.263 114.96 137.383 111.52 139.383 107.28L132.543 102.36C130.943 105.8 128.663 108.44 125.703 110.28C122.823 112.12 119.423 113.04 115.503 113.04C112.623 113.04 110.023 112.56 107.703 111.6C105.463 110.64 103.543 109.32 101.943 107.64C100.423 105.96 99.2228 104 98.3428 101.76C97.5428 99.44 97.1428 96.96 97.1428 94.32V91.44H141.663V86.88C141.663 82.48 141.023 78.44 139.743 74.76C138.543 71.08 136.783 67.92 134.463 65.28C132.143 62.56 129.343 60.44 126.063 58.92C122.783 57.4 119.063 56.64 114.903 56.64C110.663 56.64 106.823 57.4 103.383 58.92C100.023 60.44 97.1028 62.64 94.6228 65.52C92.2228 68.32 90.3428 71.72 88.9828 75.72C87.7028 79.72 87.0628 84.16 87.0628 89.04C87.0628 94 87.7028 98.48 88.9828 102.48C90.3428 106.4 92.2228 109.8 94.6228 112.68C97.1028 115.48 100.023 117.64 103.383 119.16ZM107.703 66.12C109.863 65.16 112.263 64.68 114.903 64.68C119.863 64.68 123.823 66.36 126.783 69.72C129.823 73 131.343 77.4 131.343 82.92V84.24H97.1428V83.4C97.1428 80.68 97.5828 78.2 98.4628 75.96C99.3428 73.64 100.543 71.64 102.063 69.96C103.663 68.28 105.543 67 107.703 66.12Z" fill="#008EF4"/>
<path d="M152.682 58.08V120H162.282V77.04C162.282 75.04 162.682 73.32 163.482 71.88C164.362 70.36 165.482 69.12 166.842 68.16C168.202 67.2 169.762 66.48 171.522 66C173.282 65.52 175.122 65.28 177.042 65.28C181.602 65.28 184.962 66.68 187.122 69.48C189.282 72.28 190.362 76.44 190.362 81.96V120H199.962V77.04C199.962 75.04 200.362 73.32 201.162 71.88C201.962 70.36 203.042 69.12 204.402 68.16C205.762 67.2 207.282 66.48 208.962 66C210.722 65.52 212.562 65.28 214.482 65.28C219.202 65.28 222.642 66.68 224.802 69.48C226.962 72.28 228.042 76.44 228.042 81.96V120H237.642V80.28C237.642 72.76 235.842 66.96 232.242 62.88C228.722 58.72 223.802 56.64 217.482 56.64C212.202 56.64 208.002 57.92 204.882 60.48C201.842 62.96 199.762 65.88 198.642 69.24H198.402C196.722 64.76 194.162 61.56 190.722 59.64C187.282 57.64 183.522 56.64 179.442 56.64C177.042 56.64 174.962 56.96 173.202 57.6C171.442 58.16 169.882 58.96 168.522 60C167.242 61.04 166.122 62.28 165.162 63.72C164.282 65.08 163.482 66.56 162.762 68.16H162.282V58.08H152.682Z" fill="#008EF4"/>
<path fill-rule="evenodd" clip-rule="evenodd" d="M264.648 119.16C268.088 120.68 271.888 121.44 276.048 121.44C280.208 121.44 283.968 120.68 287.328 119.16C290.768 117.64 293.728 115.48 296.208 112.68C298.688 109.8 300.608 106.4 301.968 102.48C303.328 98.48 304.008 94 304.008 89.04C304.008 84.16 303.328 79.72 301.968 75.72C300.608 71.72 298.688 68.32 296.208 65.52C293.728 62.64 290.768 60.44 287.328 58.92C283.968 57.4 280.208 56.64 276.048 56.64C271.888 56.64 268.088 57.4 264.648 58.92C261.208 60.44 258.248 62.64 255.768 65.52C253.368 68.32 251.488 71.72 250.128 75.72C248.768 79.72 248.088 84.16 248.088 89.04C248.088 94 248.768 98.48 250.128 102.48C251.488 106.4 253.368 109.8 255.768 112.68C258.248 115.48 261.208 117.64 264.648 119.16ZM288.768 108.12C285.488 111.32 281.248 112.92 276.048 112.92C270.848 112.92 266.608 111.32 263.328 108.12C260.048 104.92 258.408 100.04 258.408 93.48V84.6C258.408 78.04 260.048 73.16 263.328 69.96C266.608 66.76 270.848 65.16 276.048 65.16C281.248 65.16 285.488 66.76 288.768 69.96C292.048 73.16 293.688 78.04 293.688 84.6V93.48C293.688 100.04 292.048 104.92 288.768 108.12Z" fill="#008EF4"/>
<path d="M314.996 58.08V120H324.596V78C324.596 75.04 326.036 72.6 328.916 70.68C331.876 68.68 335.956 67.68 341.156 67.68H346.796V58.08H343.076C338.036 58.08 334.076 59.24 331.196 61.56C328.316 63.88 326.316 66.52 325.196 69.48H324.596V58.08H314.996Z" fill="#008EF4"/>
</svg>
